<svg height="225pt" preserveAspectRatio="xMidYMid meet" viewBox="0 0 250 225" width="250pt" xmlns="http://www.w3.org/2000/svg" fill="currentColor"><path d="m395 2221c-27-16-58-37-67-47-37-42-318-509-323-538-3-17-5-355-3-752l3-721 30-49c19-30 49-60 79-79l49-30h1087 1087l49 30c30 19 60 49 79 79l30 49 3 721c2 397 0 735-3 752-5 29-286 496-323 538-9 10-39 31-67 47l-50 29h-805-805zm725-406v-185h-430-430l122 185 123 184 308 1h307zm998 0 122-185h-430-430v185 185h308l307-1zm-427-468c64-43 70-134 13-188l-26-24h-430-430l-29 33c-23 26-29 42-29 78 0 56 12 79 53 104 30 19 54 20 438 20h406z" transform="matrix(.1 0 0 -.1 0 225)"/></svg>