<svg height="213pt" preserveAspectRatio="xMidYMid meet" viewBox="0 0 250 213" width="250pt" xmlns="http://www.w3.org/2000/svg" fill="currentColor"><g transform="matrix(.1 0 0 -.1 0 213)"><path d="m1879 2041c-185-99-1099-635-1125-659-62-59-90-169-64-248 14-41 255-466 296-520 35-47 116-84 184-84 78 0 101 9 294 122 93 54 170 97 170 96 20-37 63-92 86-109l30-23v-165c0-187 9-219 72-283 72-71 81-73 396-76l282-3v131 130h-250-250v130 130l41 37c62 56 84 105 83 188 0 57-5 79-26 118l-26 47 56 33c31 19 102 60 157 92 112 65 158 103 185 156 27 52 34 125 17 179-18 59-269 495-310 539-73 77-199 95-298 42z"/><path d="m240 943c-118-8-216-16-219-18-5-6 485-849 495-852 5-1 78 101 162 227l152 230-123 213-122 212-65 1c-36 1-162-5-280-13z"/></g></svg>