<svg height="294pt" preserveAspectRatio="xMidYMid meet" viewBox="0 0 300 294" width="300pt" xmlns="http://www.w3.org/2000/svg" class="ico _link"><g transform="matrix(.1 0 0 -.1 0 294)" fill="currentColor"><path d="m1313 2924c-249-54-457-223-568-459-64-135-79-205-78-365 1-116 5-151 31-250 73-281 223-594 472-985 71-111 247-365 310-445 22-29 8-43 134 130 365 505 621 995 696 1335 30 137 31 318 1 429-81 303-316 536-611 606-101 24-289 26-387 4zm362-140c238-60 438-261 502-504 23-87 23-251 0-350-69-291-254-669-523-1070-150-224-153-228-162-214-4 5-40 56-80 112-223 313-438 709-536 991-99 285-99 466 2 671 38 78 60 109 127 175 90 90 160 135 264 171 132 46 272 52 406 18z"/><path d="m1387 2415c-71-26-145-92-180-160-8-17-20-56-26-87-33-180 84-348 263-376 206-32 376 111 376 317 0 101-23 155-94 227-43 42-76 66-110 77-60 21-176 21-229 2zm206-148c80-45 113-155 72-240-36-76-132-120-213-98-57 16-117 76-133 133-21 76 18 170 84 205 74 38 123 38 190 0z"/><path d="m347 988c-8-24-90-251-181-506s-166-468-166-473 588-9 1500-9c825 0 1500 3 1500 8 0 4-82 235-181 515l-182 507h-248-248l-40-67-41-68 239-3 239-2 71-198c39-108 100-278 135-377l64-180-1306-3c-718-1-1307-1-1308 1-3 3 186 537 252 714l16 43 238 2 238 3-39 68-40 67h-249-248z"/></g></svg>