<svg height="167pt" preserveAspectRatio="xMidYMid meet" viewBox="0 0 250 167" width="250pt" xmlns="http://www.w3.org/2000/svg" fill="currentColor"><path d="m318 1650c-49-26-94-83-107-136-7-28-11-225-11-577 0-600 0-604 67-669 21-20 49-41 63-47 18-7-25-10-152-10l-178-1v-105-105h1250 1250v105 105l-177 1c-128 0-171 3-153 10 14 6 42 27 63 47 67 65 67 69 67 669 0 352-4 549-11 577-13 54-59 110-110 136-37 19-62 20-931 20-863-1-894-2-930-20zm1762-710v-520h-830-830v520 520h830 830z" transform="matrix(.1 0 0 -.1 0 167)"/></svg>