<svg height="287pt" preserveAspectRatio="xMidYMid meet" viewBox="0 0 300 287" width="300pt" xmlns="http://www.w3.org/2000/svg" class="ico _link"><g transform="matrix(.1 0 0 -.1 0 287)" fill="currentColor"><path d="m1300 2864c-14-2-68-12-120-20-300-51-600-205-815-418-161-161-278-360-332-563-31-120-43-358-23-481 39-245 161-475 355-667 55-55 126-118 158-140 57-40 57-40 51-80-18-112-83-256-178-397l-66-98h119c68 0 151 6 190 15 158 33 308 112 436 228l61 55 74-16c54-11 135-16 290-16 186-1 230 2 328 22 155 31 276 72 417 141 397 195 666 532 741 929 25 131 15 374-19 505-54 203-171 402-332 562-163 164-359 284-591 361-182 61-273 75-509 79-115 2-221 1-235-1zm465-154c562-96 1007-500 1085-982 20-122 8-322-24-433-58-196-163-364-321-513-186-177-408-289-697-354-90-20-129-23-308-23-182 1-217 4-315 26l-110 25-40-46c-97-111-222-196-348-235-43-14-80-25-81-25-2 0 13 39 34 88 48 112 80 239 79 316v61l-86 60c-219 152-387 380-459 621-32 110-44 311-24 432 77 479 521 883 1077 981 153 27 383 28 538 1z"/><path d="m1392 2240c-160-34-272-150-308-319-23-108-27-102 73-99l88 3 8 55c22 159 120 234 282 217 69-7 109-29 139-75 41-61 51-120 32-186-14-47-32-72-127-173-61-65-122-137-136-160-29-50-48-122-57-210l-6-63h90 90v58c0 87 31 138 164 275 64 65 128 139 143 165 26 43 28 55 28 152 0 95-3 111-28 162-36 74-119 150-195 178-65 25-210 35-280 20z"/><path d="m1380 995v-95h95 95v95 95h-95-95z"/></g></svg>