<svg height="250pt" preserveAspectRatio="xMidYMid meet" viewBox="0 0 250 250" width="250pt" xmlns="http://www.w3.org/2000/svg"><g transform="matrix(.1 0 0 -.1 0 250)" fill="#2b353d"><path d="m1005 2480c-169-35-304-91-445-184-294-196-483-483-545-830-14-77-17-132-13-264 3-92 9-175 13-184 6-16 23-18 141-18 74 0 134 2 134 4 0 3-7 35-16 72-18 80-21 252-4 342 79 439 456 786 891 821 192 15 353-15 525-100 250-122 453-367 525-634 36-133 37-356 3-483l-6-22h136 136l7 27c5 16 8 118 8 228-1 176-3 211-24 288-63 243-168 426-340 597-179 178-409 298-660 345-117 21-349 19-466-5z"/><path d="m933 1955c-163-71-337-248-407-416l-15-36 85-33c46-18 86-31 88-29s18 33 37 69c47 90 163 204 257 253 39 21 72 41 72 45 0 20-65 162-74 162-6-1-25-7-43-15z"/><path d="m1140 1614c-242-65-349-366-203-576l26-38h287 287l26 38c41 58 58 110 64 188 11 135-52 267-160 339-92 61-214 79-327 49zm171-260c52-26 74-107 44-163-15-30-69-61-104-61-39 0-89 28-105 59-58 111 54 223 165 165z"/><path d="m2 522 3-359 30-49c19-30 49-60 79-79l49-30h1087 1087l49 30c30 19 60 49 79 79l30 49 3 359 3 358h-1251-1251z"/></g></svg>