<svg height="220pt" preserveAspectRatio="xMidYMid meet" viewBox="0 0 242 220" width="242pt" xmlns="http://www.w3.org/2000/svg"><g transform="matrix(.1 0 0 -.1 0 220)" fill="#2b353d"><path d="m164 2186c-51-23-110-83-133-136-21-49-21-54-19-742 3-657 4-695 22-731 26-53 72-96 131-123 44-21 65-24 183-24h132l1-32c4-120-25-197-94-249-74-57-84-82-46-120 19-19 28-20 92-14 225 22 416 152 519 352l33 63h610 610l50 24c57 26 106 73 132 125 17 33 18 85 21 729 2 688 2 693-19 742-23 55-82 114-135 136-49 21-2043 20-2090 0zm2056-115c20-11 44-36 57-62l23-43-2-660-3-661-24-34c-13-18-42-42-65-52-39-17-78-19-662-19-525 0-623-2-633-14-7-8-30-51-52-97-51-105-145-202-240-247-37-18-69-32-71-32-3 0 6 21 19 48 39 80 44 290 6 327-11 12-45 15-166 15-173 0-216 12-258 71l-24 34-3 661-2 660 23 43c45 87-37 81 1067 81 931 0 977-1 1010-19z"/><path d="m625 1466c-37-16-83-68-91-102-10-41 2-110 24-142 32-43 84-65 147-60 151 13 198 198 73 291-33 25-113 32-153 13z"/><path d="m1145 1466c-157-72-107-306 65-306 159 0 218 196 88 293-34 25-113 32-153 13z"/><path d="m1665 1466c-85-39-120-144-74-225 29-52 64-74 124-79 101-8 166 47 173 147 4 62-17 105-70 144-34 25-113 32-153 13z"/></g></svg>