<svg height="363pt" preserveAspectRatio="xMidYMid meet" viewBox="0 0 300 363" width="300pt" xmlns="http://www.w3.org/2000/svg"><path fill="#23303c" d="m1204 3615c-313-46-563-164-759-360-140-139-233-294-299-496-58-180-68-258-73-608-5-309-6-316-29-350-35-54-47-119-42-228 4-85 8-106 35-158 17-34 52-80 78-104 42-38 134-91 161-91 6 0 32-55 59-122 68-171 211-454 290-572 241-363 488-526 795-526 266 0 484 123 700 395l63 80-107 3-107 3-82-85c-155-159-303-231-477-229-208 1-390 112-573 348-132 171-285 461-397 752l-43 111-60 11c-111 20-172 94-171 211 0 110-1 109 156 35 75-36 146-65 158-65s35 13 51 29l29 29v295 294l81 7c280 23 661 134 861 251 79 46 177 116 202 144l19 21 78-84c122-130 303-258 431-303l47-17 3-307c3-282 4-309 22-327 32-36 69-37 142-3 37 17 68 31 70 31s4-54 4-119v-120l-42-6-43-7-54-137c-29-75-86-205-127-290s-72-156-70-159c11-11 149 41 188 71 58 44 75 73 137 223 49 119 63 143 84 144 14 0 7-105-11-171-37-131-121-233-244-294-87-42-173-55-383-55h-141l-34 52c-26 38-50 60-90 81-54 28-57 28-201 25-142-3-147-4-195-33-30-19-60-49-79-80-27-43-30-57-30-124 1-84 14-118 66-170 57-57 82-65 224-69 80-2 148 1 174 8 49 13 138 89 147 126 6 22 7 22 237 26 205 4 240 7 297 26 254 84 420 306 437 583 5 81 9 99 22 99 68 0 161 65 192 134 16 36 19 69 19 265v223l-27 50c-29 53-89 102-139 113-16 4-36 9-45 11-14 4-17 33-22 222-5 231-19 335-63 482-124 413-441 663-899 709l-110 11-75 75-75 75-125-1c-69-1-166-7-216-14zm340-224 78-78 106-6c360-21 606-165 746-437 91-177 126-351 126-634v-176l-24-10c-43-16-56-47-56-137 0-81 0-83-30-98-16-8-31-15-35-15-3 0-5 119-5 263 0 306 9 280-118 331-110 45-220 110-315 186-73 58-106 94-213 226-25 31-37 38-67 38-32 0-46-9-109-71-40-38-98-86-128-105-221-141-542-240-924-285-201-24-186 3-186-328v-265l-80 40-80 40v229c0 346 25 515 101 695 92 218 284 419 505 529 126 63 326 119 490 136 145 15 131 19 218-68zm1249-1512c41-19 47-49 47-228 0-155-2-170-21-195-18-22-28-26-75-26h-54v230 230h40c21 0 50-5 63-11zm-1194-1180c54-19 68-75 29-116-20-21-30-23-127-23-94 0-107 2-128 22-39 36-29 92 21 114 38 16 161 18 205 3z" transform="matrix(.1 0 0 -.1 0 363)"/></svg>