<svg height="326pt" preserveAspectRatio="xMidYMid meet" viewBox="0 0 300 326" width="300pt" xmlns="http://www.w3.org/2000/svg"><g transform="matrix(.1 0 0 -.1 0 326)" fill="#23303c"><path d="m105 3243c-44-23-65-44-86-85-18-34-19-64-19-395 0-344 1-365 27-513 22-131 27-185 27-345 0-175-2-198-27-295l-27-105v-388c0-429 0-429 63-484 52-46 91-53 285-53h172v-68c0-229 154-430 379-496 70-21 274-21 350-1 220 58 366 242 386 488l7 77h496c485 0 497 0 540 21 113 55 211 262 266 562 45 242 51 345 51 807-1 391-3 451-22 595-51 368-143 594-278 677-28 17-68 18-738 18-687 0-709-1-747-20-49-25-85-72-100-130-8-32-10-381-8-1215 3-1304-3-1197 72-1263 48-42 91-52 220-52h108l-7-67c-10-93-28-148-71-210-45-65-114-118-191-145-49-17-76-19-178-16-111 4-125 6-180 35-125 64-205 187-213 324l-4 77 123 3c114 4 128 6 171 31 35 21 53 41 73 82l27 55-5 388c-4 388-4 388-32 488-25 92-28 114-27 275 0 147 4 199 27 325 26 140 28 172 32 501 5 385 2 411-50 471-55 63-56 63-479 63-330-1-387-3-413-17zm791-148c14-21 15-63 11-367-4-310-7-357-30-488-46-266-45-506 5-666 20-64 22-94 26-436l4-367-26-26-25-25h-338c-290 0-342 2-361 16l-22 15v366 365l27 107c26 99 28 119 27 311 0 175-4 227-27 360-26 147-27 171-27 491 0 294 2 340 16 353 13 14 61 16 369 16h355zm1764-12c94-106 160-356 190-708 13-156 13-686 0-840-34-398-108-669-214-783l-30-32h-657c-632 0-658 1-680 19l-24 19v1165c0 972 2 1167 14 1180 12 16 73 17 691 17h678z"/><path d="m1522 2924c-22-15-22-17-22-313 0-276 1-299 18-314s66-17 505-17c474 0 488 1 507 20s20 33 20 305v286l-25 24-24 25h-478c-417 0-481-2-501-16zm888-314v-190h-385-385v190 190h385 385z"/><path d="m1530 2148c-24-13-25-18-28-120-4-138-3-138 128-138 134 0 146 13 138 155-5 101-13 109-126 113-58 2-95-2-112-10z"/><path d="m1925 2149c-32-19-35-29-35-130 0-126 3-129 131-129 130 0 133 3 137 122 3 82 1 97-16 118-18 23-28 25-109 28-55 1-96-2-108-9z"/><path d="m2306 2139c-25-20-26-25-26-118 0-129 2-131 138-131 128 0 132 4 132 133 0 80-2 90-25 112-22 23-32 25-108 25-70 0-89-3-111-21z"/><path d="m1540 1759c-37-15-40-25-40-131 0-109 7-123 66-134 56-10 164 1 183 20 24 25 23 208-1 232-21 21-168 30-208 13z"/><path d="m1930 1759c-37-15-40-25-40-131 0-109 7-123 66-134 56-10 164 1 183 20 24 25 23 208-1 232-21 21-168 30-208 13z"/><path d="m2330 1763c-44-17-50-33-50-133 0-129 6-135 137-135 125 0 133 9 133 135 0 122-9 132-121 137-46 1-91 0-99-4z"/><path d="m1516 1354c-13-12-16-38-16-118 0-131 0-131 131-131 122 0 131 7 137 100 5 77-3 129-24 150-22 22-206 22-228-1z"/><path d="m1907 1352c-13-15-17-39-17-115 0-131 13-143 156-135 66 3 79 7 96 28s19 37 16 118c-4 119-7 122-138 122-81 0-100-3-113-18z"/><path d="m2297 1352c-13-15-17-39-17-115 0-91 1-96 26-116 22-18 41-21 111-21 76 0 86 2 108 25 23 22 25 32 25 112 0 129-4 133-134 133-87 0-105-3-119-18z"/></g></svg>