<svg height="314pt" preserveAspectRatio="xMidYMid meet" viewBox="0 0 300 314" width="300pt" xmlns="http://www.w3.org/2000/svg"><g transform="matrix(.1 0 0 -.1 0 314)" fill="#23303c"><path d="m220 3118c-77-30-169-123-198-201l-22-58v-1004-1004l22-58c29-80 121-172 201-201 51-20 78-22 234-22h176l-6-102c-3-70-12-121-27-160-22-59-89-144-133-167-50-26-56-94-13-130 26-22 194-9 291 23 209 67 384 233 487 462l33 74h727c721 0 728 0 785 22 80 29 172 121 201 201l22 58v1004 1004l-22 58c-29 80-121 172-201 201l-58 22-1222-1c-1218 0-1222 0-1277-21zm2505-147c22-10 52-31 67-47 61-65 58-13 58-1069s3-1004-58-1069c-15-16-45-37-67-47-38-18-81-19-787-19h-747l-24-23c-13-12-32-44-42-72-78-218-231-389-392-439l-22-7 24 53c32 71 55 208 55 335 0 97-2 106-25 128-24 25-24 25-235 25-229 0-257 5-314 58-16 15-37 45-47 67-18 38-19 87-19 1008 0 1059-3 1006 58 1071 15 16 45 37 67 47 38 18 93 19 1225 19s1187-1 1225-19z"/><path d="m692 2667c-29-29-52-56-52-59 0-4 34-63 76-132l75-126h52 52l162-162 163-163 55 55 55 55-165 165-165 165v51 51l-122 73c-68 40-126 74-129 76s-29-20-57-49z"/><path d="m1834 2706c-85-19-138-49-206-114-87-82-121-159-126-282-2-53 1-113 7-135l11-40-430-430c-236-236-434-443-440-458-17-46-12-109 13-157 36-72 116-106 204-88 46 10 66 28 479 440l431 430 77-13c264-44 506 154 506 415 0 76-15 156-35 182-13 18-25 8-172-139l-158-157-95 95-95 95 160 160c87 87 157 161 155 164-3 2-26 11-52 20-69 23-164 28-234 12z"/><path d="m1722 1637c-67-67-122-127-122-132 0-6 109-119 243-252 174-173 250-243 272-248 17-4 38-9 47-11 25-7 98 15 132 39 55 39 82 144 55 214-9 24-484 513-499 513-3 0-60-55-128-123z"/></g></svg>